#!OML:ASF H:\Male1\Project 1\Capture day 1\Session 1\Male1.ASF
:FULLY-SPECIFIED
:DEGREES
226
root 8.19578 13.4782 2.54175 0.954432 -233.626 -3.79026
lowerback 30.3157 -2.76083 4.02953
upperback 12.4616 -0.154363 2.37971
thorax -2.60065 0.843733 0.326057
lowerneck 5.90882 12.3743 16.8718
upperneck -17.5106 15.9662 -27.4191
head -2.07638 9.34505 -11.6872
rclavicle 3.73715e-014 -3.18055e-014
rhumerus -36.3463 3.68329 -87.5773
rradius 41.5292
rwrist -25.8104
rhand -31.482 7.4702
rfingers 7.12502
rthumb -4.74852 -22.4566
lclavicle 3.73715e-014 -3.18055e-014
lhumerus -0.172166 -14.5376 76.0319
lradius 40.2042
lwrist 26.6196
lhand -37.652 23.2359
lfingers 7.12502
lthumb -10.7036 52.9432
rfemur -53.4759 4.33715 24.8822
rtibia 64.5378
rfoot -25.2238 -26.554
rtoes -2.75178
lfemur -45.5623 -6.02663 -20.8495
ltibia 70.2035
lfoot -28.0832 20.249
ltoes -9.12635
227
root 8.25772 13.5664 2.77329 0.633248 -230.824 -3.13296
lowerback 30.9812 -2.69194 3.52537
upperback 12.5051 -0.0441203 2.55345
thorax -2.84532 0.918314 0.772647
lowerneck 6.26055 12.6914 16.7921
upperneck -17.8793 16.419 -27.311
head -2.16144 9.60646 -11.6463
rclavicle -8.18993e-014 5.725e-014
rhumerus -37.8254 2.80575 -88.0228
rradius 42.0355
rwrist -25.8367
rhand -32.3795 9.97481
rfingers 7.12502
rthumb -5.61514 -19.9308
lclavicle -8.18993e-014 5.725e-014
lhumerus -0.238604 -15.2638 75.3203
lradius 37.7069
lwrist 19.854
lhand -37.1472 25.4529
lfingers 7.12502
lthumb -10.2166 55.1848
rfemur -51.6386 3.63151 25.4361
rtibia 63.043
rfoot -24.1389 -28.1024
rtoes -9.10936
lfemur -44.3988 -8.12754 -19.5218
ltibia 68.4715
lfoot -26.7636 19.8877
ltoes -11.2354
228
root 8.33005 13.6866 2.99591 0.927543 -228.351 -1.93378
lowerback 31.0858 -2.51535 2.99467
upperback 12.5693 0.161112 3.09372
thorax -2.8176 1.02208 1.61022
lowerneck 6.41549 13.1434 16.3035
upperneck -18.096 17.0028 -27.378
head -2.16024 9.96092 -11.5554
rclavicle -4.69132e-014 6.52014e-014
rhumerus -38.3935 3.17339 -88.3041
rradius 41.0827
rwrist -25.9567
rhand -29.8579 8.56726
rfingers 7.12502
rthumb -3.18027 -21.3888
lclavicle -4.69132e-014 6.52014e-014
lhumerus -0.986538 -15.7473 74.8323
lradius 36.372
lwrist 14.9684
lhand -34.3597 27.5157
lfingers 7.12502
lthumb -7.52676 57.3618
rfemur -49.7138 2.92103 26.4101
rtibia 61.3472
rfoot -27.667 -26.6344
rtoes -0.500872
lfemur -43.2356 -9.65313 -17.6948
ltibia 66.318
lfoot -25.372 18.9551
ltoes -13.9062
229
root 8.42338 13.7784 3.19828 1.71136 -226.223 -0.316875
lowerback 30.6882 -2.30524 3.11091
upperback 12.4964 0.492635 3.48767
thorax -2.73133 1.18964 1.87178
lowerneck 5.51716 13.4649 15.7128
upperneck -17.0134 17.4569 -26.5808
head -1.76226 10.0646 -10.9821
rclavicle 1.11319e-014 -2.62396e-014
rhumerus -39.1856 3.3668 -89.3205
rradius 39.0427
rwrist -24.9567
rhand -28.8902 7.55462
rfingers 7.12502
rthumb -2.24565 -22.4133
lclavicle 1.11319e-014 -2.62396e-014
lhumerus -1.16975 -18.0706 73.3228
lradius 35.4406
lwrist 14.05
lhand -30.9198 27.5892
lfingers 7.12502
lthumb -4.20573 57.5274
rfemur -48.1497 1.68921 27.9796
rtibia 60.0528
rfoot -25.1829 -26.5039
rtoes -10.8069
lfemur -42.3444 -10.6205 -15.4587
ltibia 64.1573
lfoot -24.1599 17.877
ltoes -14.8284
230
root 8.52137 13.9153 3.39097 2.28151 -224.313 0.681379
lowerback 29.9119 -2.12631 3.31173
upperback 12.139 0.655385 3.39517
thorax -2.79119 1.24818 1.59651
lowerneck 4.64451 13.732 15.6101
upperneck -15.9677 17.8826 -25.5536
head -1.3711 10.1084 -10.4312
rclavicle 4.6118e-014 -1.19271e-014
rhumerus -40.3458 2.42736 -90.6395
rradius 37.4628
rwrist -24.2516
rhand -27.7772 6.025
rfingers 7.12502
rthumb -1.17071 -23.9515
lclavicle 4.6118e-014 -1.19271e-014
lhumerus -2.80959 -20.5832 71.3892
lradius 36.3559
lwrist 15.5931
lhand -29.7278 28.0108
lfingers 7.12502
lthumb -3.05457 57.9686
rfemur -47.1703 1.02146 28.2958
rtibia 59.605
rfoot -23.3286 -23.5412
rtoes -16.8862
lfemur -41.3403 -11.4881 -13.5996
ltibia 61.6516
lfoot -23.6292 16.843
ltoes -10.5033
231
root 8.60347 14.0481 3.55682 1.39662 -222.258 -0.599842
lowerback 29.3215 -2.14694 2.53265
upperback 11.3602 0.155234 2.4859
thorax -3.3942 0.921726 1.18441
lowerneck 4.58428 13.9583 16.6746
upperneck -15.3798 18.3257 -25.1793
head -1.04518 10.2009 -10.3641
rclavicle 1.82882e-014 -2.3059e-014
rhumerus -42.1458 0.95766 -92.2486
rradius 36.4415
rwrist -23.3376
rhand -26.452 4.0613
rfingers 7.12502
rthumb 0.109215 -25.9184
lclavicle 1.82882e-014 -2.3059e-014
lhumerus -5.68162 -22.5703 68.9387
lradius 38.3875
lwrist 17.0249
lhand -28.8345 27.5375
lfingers 7.12502
lthumb -2.19187 57.5059
rfemur -46.6041 -0.0922076 26.6081
rtibia 60.014
rfoot -21.8074 -19.228
rtoes -21.5813
lfemur -40.2435 -12.7758 -13.7794
ltibia 58.9765
lfoot -22.3071 20.1807
ltoes -13.2195
232
root 8.70123 14.1413 3.72292 0.0796376 -219.926 -2.00472
lowerback 28.7372 -1.96814 1.04086
upperback 10.9106 -0.14484 2.2062
thorax -3.61364 0.706432 1.81986
lowerneck 4.58569 14.1534 16.5862
upperneck -15.1741 18.6268 -24.8491
head -0.978792 10.3195 -10.1984
rclavicle 3.89618e-014 -1.90833e-014
rhumerus -43.6631 -0.110913 -92.8251
rradius 35.5989
rwrist -22.5871
rhand -27.67 4.40404
rfingers 7.12502
rthumb -1.06722 -25.573
lclavicle 3.89618e-014 -1.90833e-014
lhumerus -8.09148 -23.8333 67.1893
lradius 40.6749
lwrist 17.2352
lhand -27.4723 26.3229
lfingers 7.12502
lthumb -0.876244 56.3008
rfemur -45.4599 0.222107 23.9309
rtibia 61.4907
rfoot -20.537 -14.8496
rtoes -26.1503
lfemur -38.9375 -13.8997 -14.3816
ltibia 56.2558
lfoot -20.8224 22.1531
ltoes -21.5086
233
root 8.8424 14.2506 3.91138 -0.202919 -217.425 -0.992765
lowerback 28.3331 -1.69493 1.39931
upperback 10.8005 0.348689 2.72365
thorax -3.56692 0.957589 2.0288
lowerneck 3.86788 13.867 15.8164
upperneck -14.7879 18.2012 -24.5028
head -0.957714 10.0879 -9.94603
rclavicle 5.56597e-014 3.26007e-014
rhumerus -44.5163 -1.66649 -92.7172
rradius 34.4827
rwrist -22.0421
rhand -28.2954 4.22191
rfingers 7.12502
rthumb -1.67124 -25.7513
lclavicle 5.56597e-014 3.26007e-014
lhumerus -9.16653 -25.7489 65.6459
lradius 42.9519
lwrist 16.4459
lhand -27.9299 24.7438
lfingers 7.12502
lthumb -1.31826 54.7194
rfemur -42.7495 2.57788 23.2213
rtibia 62.6726
rfoot -20.055 -14.8981
rtoes -24.2391
lfemur -37.4274 -14.6803 -12.9843
ltibia 53.6663
lfoot -20.531 18.6058
ltoes -21.5254
234
root 8.96679 14.3333 4.07364 -1.28123 -214.209 -1.59309
lowerback 27.6052 -1.90354 0.565654
upperback 10.6648 -0.159276 2.73804
thorax -3.35148 0.688817 2.67072
lowerneck 3.69075 13.8939 15.5596
upperneck -14.7461 18.239 -24.3558
head -0.953998 10.1043 -9.8419
rclavicle -6.91771e-014 -1.82882e-014
rhumerus -44.6825 -1.55983 -93.3599
rradius 32.6815
rwrist -21.0904
rhand -27.7453 5.01219
rfingers 7.12502
rthumb -1.13988 -24.9645
lclavicle -6.91771e-014 -1.82882e-014
lhumerus -10.6617 -25.9411 63.5518
lradius 45.3764
lwrist 15.6603
lhand -27.6651 23.8992
lfingers 7.12502
lthumb -1.06245 53.8763
rfemur -39.8409 3.83072 21.3437
rtibia 63.6015
rfoot -19.6188 -15.0277
rtoes -24.6598
lfemur -36.4003 -16.5627 -13.1676
ltibia 51.4657
lfoot -20.4665 15.3359
ltoes -20.7493
235
root 9.11376 14.4112 4.23224 -1.64399 -211.201 -0.414248
lowerback 27.1088 -2.17962 1.09804
upperback 10.488 -0.360113 3.02389
thorax -3.31297 0.605096 2.73065
lowerneck 3.27382 13.8324 15.2503
upperneck -14.0828 18.1882 -23.6355
head -0.827911 9.9974 -9.50657
rclavicle -3.65764e-014 -3.10104e-014
rhumerus -44.739 -1.74017 -93.9608
rradius 30.5852
rwrist -19.243
rhand -26.8976 5.74435
rfingers 7.12502
rthumb -0.321178 -24.2352
lclavicle -3.65764e-014 -3.10104e-014
lhumerus -12.1492 -24.8875 61.6839
lradius 47.8003
lwrist 14.9929
lhand -27.5404 22.7123
lfingers 7.12502
lthumb -0.942049 52.6899
rfemur -35.6816 5.98248 21.6786
rtibia 62.9476
rfoot -20.2772 -15.4533
rtoes -23.9109
lfemur -35.3071 -17.8839 -11.848
ltibia 50.0165
lfoot -20.6139 14.8289
ltoes -22.8534
236
root 9.25213 14.4451 4.36844 -2.36845 -208.077 -0.341674
lowerback 26.4391 -2.34336 1.02386
upperback 10.1293 -0.659161 3.00073
thorax -3.38015 0.439312 2.82383
lowerneck 2.54168 13.7745 14.8294
upperneck -12.9467 18.1472 -22.4027
head -0.584403 9.83725 -8.94939
rclavicle 1.39149e-014 -5.40694e-014
rhumerus -44.7187 -2.1432 -94.2413
rradius 28.9075
rwrist -17.988
rhand -25.0316 5.56109
rfingers 7.12502
rthumb 1.48104 -24.4135
lclavicle 1.39149e-014 -5.40694e-014
lhumerus -13.1439 -24.1455 59.6542
lradius 49.8149
lwrist 16.2204
lhand -28.183 19.6946
lfingers 7.12502
lthumb -1.56267 49.6686
rfemur -31.1724 7.60432 21.6133
rtibia 60.5855
rfoot -19.8836 -15.3617
rtoes -29.0939
lfemur -34.8084 -18.8039 -11.7748
ltibia 49.6756
lfoot -20.9564 16.9534
ltoes -25.5151
237
root 9.38131 14.4589 4.49627 -2.95096 -205.142 -0.526985
lowerback 25.7378 -2.30729 0.772658
upperback 9.56635 -0.80313 2.90055
thorax -3.65645 0.324745 2.88884
lowerneck 2.96944 13.5179 15.0758
upperneck -12.8015 17.8806 -21.9992
head -0.687242 9.67482 -8.92291
rclavicle 7.95139e-015 7.79236e-014
rhumerus -44.8011 -2.82194 -94.2999
rradius 27.3781
rwrist -16.8305
rhand -23.4754 5.11272
rfingers 7.12502
rthumb 2.98398 -24.8461
lclavicle 7.95139e-015 7.79236e-014
lhumerus -13.4526 -21.7225 58.1728
lradius 51.1458
lwrist 16.6684
lhand -27.8363 19.6983
lfingers 7.12502
lthumb -1.22785 49.6745
rfemur -27.3428 9.1693 21.6768
rtibia 57.5477
rfoot -25.0182 -16.5434
rtoes -29.5631
lfemur -34.9245 -18.7083 -12.1545
ltibia 50.6114
lfoot -23.3188 17.113
ltoes -19.1395
